<mxfile host="drawio.cossiant.xyz" agent="Mozilla/5.0 (Windows NT 10.0; Win64; x64) AppleWebKit/537.36 (KHTML, like Gecko) Chrome/135.0.0.0 Safari/537.36" version="26.1.1">
  <diagram name="Page-1" id="3XkK2GSHAEEn3PQx2V9Q">
    <mxGraphModel dx="1221" dy="767" grid="1" gridSize="10" guides="1" tooltips="1" connect="1" arrows="1" fold="1" page="1" pageScale="1" pageWidth="827" pageHeight="1169" math="0" shadow="0">
      <root>
        <mxCell id="0" />
        <mxCell id="1" parent="0" />
        <mxCell id="NAMRMwcV_aCiUvOejlDn-3" value="" style="rounded=0;whiteSpace=wrap;html=1;" vertex="1" parent="1">
          <mxGeometry x="30" y="110" width="560" height="370" as="geometry" />
        </mxCell>
        <mxCell id="NAMRMwcV_aCiUvOejlDn-4" value="电机运动函数（电机数据结构指针）" style="rounded=0;whiteSpace=wrap;html=1;" vertex="1" parent="1">
          <mxGeometry x="40" y="225" width="210" height="70" as="geometry" />
        </mxCell>
        <mxCell id="NAMRMwcV_aCiUvOejlDn-5" value="电机数据结构（正反转，需要转多少度，需要执行的脉冲数，电机当前运行状态，当前电机复位状态，当前电机ID）" style="rounded=0;whiteSpace=wrap;html=1;" vertex="1" parent="1">
          <mxGeometry x="260" y="120" width="320" height="70" as="geometry" />
        </mxCell>
        <mxCell id="NAMRMwcV_aCiUvOejlDn-6" value="&lt;h1 style=&quot;margin-top: 0px;&quot;&gt;&lt;span style=&quot;font-weight: 400; text-align: center;&quot;&gt;&lt;font style=&quot;font-size: 21px;&quot;&gt;电机驱动相关函数&lt;/font&gt;&lt;/span&gt;&lt;/h1&gt;" style="text;html=1;whiteSpace=wrap;overflow=hidden;rounded=0;" vertex="1" parent="1">
          <mxGeometry x="40" y="130" width="180" height="120" as="geometry" />
        </mxCell>
        <mxCell id="NAMRMwcV_aCiUvOejlDn-7" value="电机运行测试任务（输入电机数据结构指针）目的是为了确保电机运行是没有问题的" style="rounded=0;whiteSpace=wrap;html=1;" vertex="1" parent="1">
          <mxGeometry x="40" y="330" width="540" height="60" as="geometry" />
        </mxCell>
        <mxCell id="NAMRMwcV_aCiUvOejlDn-8" value="电机复位检查任务（输入电机数据结构指针）目的是为了确保电机不会运行超限" style="rounded=0;whiteSpace=wrap;html=1;" vertex="1" parent="1">
          <mxGeometry x="40" y="410" width="540" height="60" as="geometry" />
        </mxCell>
        <mxCell id="NAMRMwcV_aCiUvOejlDn-9" value="" style="shape=curlyBracket;whiteSpace=wrap;html=1;rounded=1;labelPosition=left;verticalLabelPosition=middle;align=right;verticalAlign=middle;" vertex="1" parent="1">
          <mxGeometry x="250" y="200" width="20" height="120" as="geometry" />
        </mxCell>
        <mxCell id="NAMRMwcV_aCiUvOejlDn-10" value="通过ID确定要控制的IO（随后进入单独的电机控制函数）" style="text;html=1;align=center;verticalAlign=middle;whiteSpace=wrap;rounded=0;" vertex="1" parent="1">
          <mxGeometry x="270" y="200" width="300" height="30" as="geometry" />
        </mxCell>
        <mxCell id="NAMRMwcV_aCiUvOejlDn-11" value="根据需要转多少度确定需要的脉冲数" style="text;html=1;align=center;verticalAlign=middle;whiteSpace=wrap;rounded=0;" vertex="1" parent="1">
          <mxGeometry x="270" y="230" width="290" height="30" as="geometry" />
        </mxCell>
        <mxCell id="NAMRMwcV_aCiUvOejlDn-12" value="开始对对应IO输出PWM波，当前电机运行状态start" style="text;html=1;align=center;verticalAlign=middle;whiteSpace=wrap;rounded=0;" vertex="1" parent="1">
          <mxGeometry x="269" y="260" width="290" height="30" as="geometry" />
        </mxCell>
        <mxCell id="NAMRMwcV_aCiUvOejlDn-13" value="完成电机运动后重置电机运行状态" style="text;html=1;align=center;verticalAlign=middle;whiteSpace=wrap;rounded=0;" vertex="1" parent="1">
          <mxGeometry x="280" y="290" width="270" height="30" as="geometry" />
        </mxCell>
        <mxCell id="NAMRMwcV_aCiUvOejlDn-14" value="" style="shape=curlyBracket;whiteSpace=wrap;html=1;rounded=1;labelPosition=left;verticalLabelPosition=middle;align=right;verticalAlign=middle;" vertex="1" parent="1">
          <mxGeometry x="123" y="610" width="20" height="120" as="geometry" />
        </mxCell>
        <mxCell id="NAMRMwcV_aCiUvOejlDn-17" value="电机" style="text;html=1;align=center;verticalAlign=middle;whiteSpace=wrap;rounded=0;" vertex="1" parent="1">
          <mxGeometry x="143" y="600" width="60" height="30" as="geometry" />
        </mxCell>
        <mxCell id="NAMRMwcV_aCiUvOejlDn-18" value="" style="shape=curlyBracket;whiteSpace=wrap;html=1;rounded=1;labelPosition=left;verticalLabelPosition=middle;align=right;verticalAlign=middle;" vertex="1" parent="1">
          <mxGeometry x="213" y="555" width="20" height="120" as="geometry" />
        </mxCell>
        <mxCell id="NAMRMwcV_aCiUvOejlDn-19" value="电机1" style="text;html=1;align=center;verticalAlign=middle;whiteSpace=wrap;rounded=0;" vertex="1" parent="1">
          <mxGeometry x="247" y="540" width="60" height="30" as="geometry" />
        </mxCell>
        <mxCell id="NAMRMwcV_aCiUvOejlDn-20" value="电机2" style="text;html=1;align=center;verticalAlign=middle;whiteSpace=wrap;rounded=0;" vertex="1" parent="1">
          <mxGeometry x="247" y="600" width="60" height="30" as="geometry" />
        </mxCell>
        <mxCell id="NAMRMwcV_aCiUvOejlDn-21" value="电机3" style="text;html=1;align=center;verticalAlign=middle;whiteSpace=wrap;rounded=0;" vertex="1" parent="1">
          <mxGeometry x="247" y="662.5" width="60" height="30" as="geometry" />
        </mxCell>
        <mxCell id="NAMRMwcV_aCiUvOejlDn-27" value="SYS_USE_DATA" style="text;html=1;align=center;verticalAlign=middle;whiteSpace=wrap;rounded=0;" vertex="1" parent="1">
          <mxGeometry x="40" y="655" width="60" height="30" as="geometry" />
        </mxCell>
        <mxCell id="NAMRMwcV_aCiUvOejlDn-28" value="注意！电机数据结构指针和具体的电机指针不是一个东西！" style="text;html=1;align=center;verticalAlign=middle;whiteSpace=wrap;rounded=0;" vertex="1" parent="1">
          <mxGeometry x="30" y="500" width="550" height="30" as="geometry" />
        </mxCell>
      </root>
    </mxGraphModel>
  </diagram>
</mxfile>
